<?xml version="1.0" encoding="utf-8"?>
<!-- Generator: Adobe Illustrator 21.0.2, SVG Export Plug-In . SVG Version: 6.00 Build 0)  -->
<svg version="1.1" id="Layer_1" xmlns="http://www.w3.org/2000/svg" xmlns:xlink="http://www.w3.org/1999/xlink" x="0px" y="0px"
	 viewBox="0 0 400.9 368.1" style="enable-background:new 0 0 400.9 368.1;" xml:space="preserve">
<style type="text/css">
	.st0{fill:#FFFFFF;}
	.st1{fill:#EB0029;}
	.st2{fill:none;stroke:#FFFFFF;stroke-width:2;stroke-miterlimit:10;}
</style>
<g>
	<path class="st0" d="M394.8,151.1c-3.1-3-7.2-4.7-11.7-4.7c-3.9,0-7.4,1.2-10.3,2.7c-0.8-2.2-1.7-4.3-2.5-6.2c-0.8-1.9-1.7-3.8-2-5
		c-2.7-10.5-10.9-11.6-14.4-11.6c-1.6,0-3.1,0.2-4.7,0.4c-4.2,0.6-7.9,2.3-10.7,4.8c-2.4-5.1-5.5-9.8-9.3-14.2
		c-13.7-15.8-35.2-25.2-73.3-31.9L283.2,0l-28.5,7.9c-0.3,0.1-30.5,8.4-45.5,12.9c-0.8,0.2-4.1,1-13,1c-9.5,0-20.9-0.9-30.1-1.6
		c-6.5-0.5-11.7-0.9-15.4-0.9c-2.9,0-6.1-0.1-9.4-0.2c-4.9-0.2-10-0.3-15.4-0.3c-19.6,0-44.3,2.1-62.1,18.4
		c-13.4,12.3-22.2,44.4-13.3,67.2c6.2,16.1,20.1,25.3,38,25.3c1.8,0,3.6-0.1,5.4-0.3c22-2.1,32.6-12.5,37.6-20.9
		c4.5-7.6,6.5-16.7,5.7-26.5c1.4-0.1,2.8-0.1,4.3-0.1c6.7,0,13.2,0.8,18,1.5c5.9,0.9,13.9,1.6,23,2.1l-37.3,4.9L132,136.7
		c-5.4-1.9-11.1-2.8-16.9-2.8c-13.2,0-26.6,5-37.1,14.3c-7,1.2-14.2,3.4-21.8,6.7c-12.8,5.5-23,12.2-34.2,22.4l0,0l0,0
		c-6.5,6.1-15.2,19.5-14,30.3l0,0l0,0c0,0.3,0.1,0.7,0.1,1.2c0.4,3.7,0.7,6.8,1.8,9.4c2.5,6.1,9.3,10.5,16.2,10.5c0.3,0,0.5,0,0.8,0
		l-0.7,1.8l0,0.1l0,0.1c-3.2,8.4-6.3,19.5-1.6,30.9c0.7,1.7,2,3.9,3.7,5.9c-6,2-11,3.8-14.8,5.6c-4,1.8-14.6,6.7-13.3,17
		c1.1,8.3,6.9,12.2,10.4,14.5c3.7,2.4,7.8,5.2,11.3,15.7c3.4,10.3,2.5,18.9,1.9,25.8c-0.6,6.5-1.2,12.7,3.3,17.7
		c2.6,2.8,6.2,4.4,10.2,4.4c7.9,0,12.8-4.9,18.1-10.1c3.3-3.3,7.8-7.8,14.6-13c9.5-7.3,19.1-14.1,29-20.4
		c9.4,15.6,28.6,24.5,53.2,24.5c21.7,0,43.7-7.4,58.7-19.5c7.8,2.1,15.8,3.2,23.7,3.2c29.9,0,58.2-15.2,79.6-42.7
		c11-14,19.5-30.8,25.1-48.7c1-0.4,1.9-0.7,2.8-1.1c22.2-9.2,34-24.5,40.4-32.7l0.4-0.5c7.4-9.6,14.2-25.8,14.9-27.6
		C399.6,175,405.2,161.2,394.8,151.1z M166.1,143.3c-1.2,4.2-2.4,8.7-3.6,13.3c-0.7,2.4-1.3,4.9-2,7.4c-0.2,0.2-0.3,0.3-0.5,0.5
		c-2.7-8.6-8-15.9-15.5-21.4L166.1,143.3z M354.2,176.6C354.2,176.6,354.2,176.6,354.2,176.6C354.2,176.6,354.2,176.6,354.2,176.6
		C354.2,176.6,354.2,176.6,354.2,176.6z M354.2,176.6C354.2,176.6,354.2,176.6,354.2,176.6C354.2,176.6,354.2,176.6,354.2,176.6
		L354.2,176.6z"/>
	<path d="M323.2,122.6c-13.2-15.2-36.1-24.4-77.7-30.8l25.6-80.2l-14.2,3.9c-0.3,0.1-30.4,8.4-45.3,12.8c-2.1,0.6-6.4,1.4-15.3,1.4
		c-9.8,0-21.4-0.9-30.7-1.6c-6.4-0.5-11.4-0.9-14.8-0.9c-3,0-6.2-0.1-9.6-0.3c-4.9-0.2-9.9-0.3-15.2-0.3c-18.1,0-41,1.8-56.7,16.3
		c-11.3,10.4-18.9,38.8-11.2,58.4c5.1,13,15.9,20.2,30.5,20.2h0c1.5,0,3.1-0.1,4.7-0.2c18.6-1.8,27.4-10.2,31.5-17
		c4.9-8.1,6-18.5,3.4-29.3c4.2-0.8,8.7-1.1,13.5-1.1c7.2,0,14,0.9,19.2,1.6c8.3,1.2,21.2,2.1,34.9,2.5l-5,14.5l-39,5.1l-10.9,37.6
		l35.9,0.3c-2.1,6.9-4.3,15-6.6,23.3c-4.2,15.5-9,33.2-14.4,46.9c-7.6,18.9-13,21.7-14.5,22.1c-2.6,0.7-5.1,1-7.4,1h0
		c-6.3,0-10-2.8-12.3-5.8c8.9-1.8,18.8-7,25.1-17.5c3.7-6.1,9.9-21.7,6.2-36.5c-2.2-8.9-7.7-16.2-15.9-21.2c-6.5-3.9-14.1-6-21.9-6
		c-23.4,0-47.9,18.6-48.2,49.7c-0.5,44.2,12.9,58,42.1,83.3c-11.5,21.4-8.6,35.8-3.9,44.4c7.6,13.7,24.7,21.6,46.9,21.6
		c21.8,0,43.4-7.9,56.8-20.4c8.5,2.7,17,4.1,25.6,4.1h0c27.4,0,53.4-14.1,73.3-39.6c18.8-24.1,30.1-56.5,31-89
		C339.7,161.2,337.5,139.1,323.2,122.6z M155.6,299.9L155.6,299.9c-3,0-5.2-0.3-6.6-0.7c3.6-1.5,10.3-3,18.7-3c2.6,0,5,0.2,7,0.4
		C169.5,298.4,162.5,299.9,155.6,299.9z M196.3,256.4c-3-1.2-6.2-2.2-9.7-3.2c6.6-9.1,14.7-24.6,24.5-51.8
		C204.2,223.3,199.1,244.3,196.3,256.4z M219.4,176.8c3.9-12.2,8.1-26.1,12.5-42c2.4,0.2,4.9,0.6,7.1,1
		C231.9,146.3,225.3,161,219.4,176.8z M273.1,224.9c-0.4,1-0.8,1.9-1.2,2.9c-7.9,20-15.6,35.9-33,39.4L273.3,157
		C286.9,172.8,279.6,208.6,273.1,224.9z"/>
	<path class="st1" d="M187.9,127.5l-36.5-0.3l6.5-22.4l38.7-5.1l10.3-29.6c-17.8-0.2-35.2-1.3-44.9-2.7c-12.3-1.8-28.4-3.3-44.1,1.8
		c7.1,17.1,6,41.1-25.4,44.1c-40.7,3.8-31.7-51.7-17.8-64.5C94.2,31,128.1,35,150.6,35.2c11.5,0.1,49.1,5,63.2,0.8
		c15-4.5,45.2-12.8,45.2-12.8l-24,75.1c89.6,12.2,97.5,33.9,95.7,97.6c-2,74.7-60.2,140.3-124.1,115.4
		c-31.6,36.5-129.4,28.9-87.4-38.1c-32.1-27.7-44.9-38.6-44.4-81.5c0.4-33.9,35-50.8,58-37c21.5,13,11.1,39.9,7,46.6
		c-9.2,15.1-26.4,15.1-29.2,13.9c-1,4,5.8,27.2,32.6,20.2C165.2,229.7,177,154.9,187.9,127.5z M190.6,294.9
		c-7.7-11.1-52.4-7.6-51.8,4.5C139.5,315,186.9,306.6,190.6,294.9z M169.9,257.7c13.3,2.5,25,5.3,31.9,10.7
		c0,0,22.4-107.6,49.8-135.6c-3.3-5.1-22.4-6.9-25.8-6C223.2,135.4,193.8,249.2,169.9,257.7z M269,144.1l-41.1,131.8
		c34.5,2.1,44.5-27.7,52.6-48C288.4,208.1,299.1,157.3,269,144.1z"/>
	<g>
		<path d="M389.2,156.8c-1.6-1.6-3.7-2.4-6.1-2.4c-5,0-9.6,3.5-11.4,5c-1.1,1-3.4,3.2-5,4.8c0.2-2,0.1-4.1,0-6
			c-0.3-4.2-2.2-8.4-3.8-12.1c-1-2.3-1.9-4.4-2.4-6.2c-0.6-2.4-2-5.6-6.6-5.6c-1.1,0-2.3,0.2-3.6,0.3c-6.1,0.9-10.2,5.2-10.4,10.8
			l-15.9,20c-1.2,1.1-2.5,2-3.8,2.9c-1.8,1.3-3.6,2.6-5.5,4.4c0.3-0.8,1.3-1.7,3.1-3.1c1.1-0.9,2.4-1.9,3.5-3.1l0.2-0.2
			c2.5-2.6,5.3-5.6,4.6-10.6l-0.1-0.3c0-0.1-3-10.9-6.2-14c-0.8-0.8-2-1.2-3.4-1.2c-2.4,0-5.8,1-11.6,2.6c-0.7,0.2-1.5,0.4-2.3,0.7
			c-0.5-2.6-2.9-4.5-5.7-4.1c-4,0.5-10,8.3-10.7,9.2c-0.5,0.6-0.9,1.3-1.4,2c-0.3-0.9-0.6-1.8-0.9-2.7c-0.9-2.1-3.4-5.7-10-5.7
			c-2.8,0-5.6,0.7-7.4,1.2c-8,2.4-15.6,8.9-20.4,17.7c-1.2-1.9-3-3.7-5.1-4.4c0-0.2,0-0.4-0.1-0.6c-0.3-1.6-1.6-4.4-6.9-4.4
			c-1.1,0-2.1,0.1-2.8,0.2l-0.3,0c-8.9,0.9-20.1,8.2-27.1,17.7c-4.4,5.9-6.7,12.1-6.6,17.8c-0.7,0.8-1.5,1.4-2.3,1.9
			c-0.1-0.4-0.1-0.9-0.1-1.2l0-0.6c-0.1-1.6,2.1-6.3,3.4-9.1c1.5-3.2,2.5-5.4,2.8-7l6.2-21.5l0.1-0.4c1.1-3.8,2.7-9.6,1.5-13.8
			c-1.2-3.9-7.2-5.5-10-5.5c-0.7,0-1.4,0.1-2,0.3c-8.3,2.5-12.6,17.5-15.9,31.9c-1.3-0.5-3-0.6-4.8,0c-6.7,2.5-16.7,12.6-22.6,23.5
			c-0.1-0.3-0.1-0.6-0.2-0.9c-0.5-1.5-1.4-4.8-4.3-6.5c0.2-0.8,0.2-1.8-0.1-2.9c-0.9-3-3.7-4.8-7.4-4.8c-1.3,0-2.8,0.2-4,0.7
			c-6.6,2.3-14.4,9.6-19.6,16.2c0.1-2.5,0.1-5-0.1-7.4c-0.9-10.4-6.4-23.2-19.4-24.9c-12.2-1.6-24.8,0.5-38.9,6.5
			c-11.9,5.1-21.4,11.4-31.9,21c-5.2,4.9-12.3,16.1-11.5,23.6c0,0.4,0.1,0.8,0.1,1.3c0.3,2.9,0.6,5.5,1.3,7.1
			c1.3,3.1,5.1,5.5,8.8,5.5c1,0,1.9-0.2,2.8-0.5c4-1.6,8.5-4.4,12.9-7.1l-8.2,20.4c-2.9,7.4-5.3,16.2-1.7,25c1,2.6,5,7.6,9.2,7.8
			c0.1,0,0.2,0,0.3,0c2.6,0,6.2-1.6,10.7-3.7c1-0.5,2-1,2.7-1.2c15.5-6.4,35.1-22.2,45.7-33.9c3-3.4,5.7-6.9,8-10.7
			c0.1,0.4,0.2,0.8,0.4,1.2c3.7,10.5,12,15.2,18.5,15.2c1.3,0,2.5-0.2,3.7-0.5c6.7-2,12-6.7,16.2-14.3c2.6-0.9,4.7-2.1,6.6-3.5
			c2.7,3.6,6.4,6.8,10.2,6.8c0.7,0,1.3-0.1,2-0.3c4-1.2,7.7-5.5,11.2-10.5c0.2,0.6,0.3,1.2,0.5,1.8c0.5,1.8,2.2,4.7,7.1,4.7
			c1.8,0,3.9-0.4,6.8-1.3c4.4-1.3,8.6-5.4,12.4-10.6c1.9,2,4.1,3.3,6.8,3.3c0.5,0,1-0.1,1.6-0.2c1.4-0.3,2.8-0.8,4.2-1.5
			c-4.3,6-8.9,13.4-10.7,19.6c-52.4,9.8-116.6,29.2-143.2,38.4c-3,1.1-7.7,2.4-13.2,4C18.2,278.4,7.3,282.8,8,289
			c0.6,4.7,3.8,6.8,6.9,8.8c4.3,2.8,10.2,6.7,14.5,19.9c3.9,11.9,2.9,21.8,2.2,29.1c-0.5,5.5-0.9,9.2,1.3,11.5
			c0.7,0.8,2.1,1.7,4.3,1.7c4.6,0,7.7-3.1,12.4-7.8c3.4-3.4,8.1-8.1,15.3-13.7c24.7-19,49.4-34,80.3-48.8
			c15.7-7.5,50.7-19.2,98.4-32.7c12.5-3.6,27-6.7,41-9.7c21.1-4.6,41-8.9,54.3-14.4c20.2-8.4,30.8-22.1,37.2-30.2l0.4-0.5
			c6.9-8.8,13.6-25,13.9-25.7C393,169.9,395,162.4,389.2,156.8z M80,218.1c-6,6.5-15.4,10.2-22.9,13.2c-1,0.4-1.8,0.6-2.5,0.8
			l19.5-35.6l0.1-0.3c0.8-2.7,1.2-5.2,1.1-7.8c5-1.6,10.4-2.5,14.8-2.5c4.6,0,7.7,1,8.3,2.7C99.1,190.6,98.9,197.7,80,218.1z
			 M344.6,165.9c0.1,3.6-1.8,4.5-3.4,4.8c-0.1,0-0.1,0-0.2,0c-0.1-0.2-0.2-0.5-0.4-0.8L344.6,165.9z M325.6,211.8
			c-13.8,4.3-32.1,5.6-53.3,7.1c-13.5,1-27.4,2-41.9,3.8c2.3-3.9,4.8-8.8,7.2-14.9l10.9-12c4.3,4.2,10.1,7.4,15.8,7.4
			c1.4,0,2.7-0.2,3.9-0.6c8-2.4,15-7.7,20.3-15.3c2.4-2.7,3.9-5,5.1-6.9c0.6-0.9,1.1-1.7,1.6-2.4c0.1,3.6,0.4,6.7,0.8,9.1
			c0.9,5.5,7.9,12.4,14.5,12.4c0.4,0,0.8,0,1.1-0.1c3.4-0.4,7.5-3.6,11.5-7.7c5.4,4.9,12.9,6.8,19.3,6.8c1.1,0,2.1-0.1,3.2-0.2
			c2.6-0.2,5.3-1.1,7.9-2.2C345.7,202.5,335.6,208.7,325.6,211.8z M354.2,176.6C354.2,176.6,354.2,176.6,354.2,176.6L354.2,176.6
			C354.2,176.6,354.2,176.6,354.2,176.6z"/>
		<g>
			<g>
				<path class="st2" d="M52.5,194.3c-1.8,0.9-7.5,5.1-12.2,7l0.1,0.2l3.8-0.8c0.6-0.2,4.2-0.8,4.7,0.8c0.6,2.3-2.1,3.9-3.2,4.4
					c-5.5,3.2-12.4,9.1-18,11.4c-2.7,1.1-6.7-1-7.6-3.3c-0.7-1.7-1-5.8-1.2-7.7c-0.6-6,5.7-16.4,10.6-21.1
					c9.6-8.8,18.8-15.1,31.1-20.4c11.6-5,24-8.1,37.3-6.3c10.6,1.4,15.9,12.1,16.8,22.2c1.3,15.7-5.1,32-16.4,44.5
					c-10.4,11.5-29.7,27.1-44.6,33.2c-2.7,1.1-9.5,4.9-12.4,4.7c-2.7-0.1-5.8-4-6.6-5.9c-3.1-7.5-1.3-15.1,1.7-22.8L52.5,194.3z
					 M50.3,233.7l0.3,1.3c0.7,0.4,2.6,0.9,7.5-1c8.3-3.3,17.6-7,24-13.9c15.9-17.2,21-27.2,19-32.6c-2.4-6.8-18.1-5.2-29-1.3
					c0.4,3.6-0.1,6.5-0.9,9.1L50.3,233.7z M154.4,210.2c-2.4,2.5-5.4,4.4-9.2,5.5c-3.3,6.4-7.8,11.7-15,13.9
					c-6,1.8-14.9-2.5-18.5-12.8c-2.8-8.5,1.3-17.2,6.2-24c4.7-6.9,13.6-15.8,20.5-18.3c2.5-0.9,6.6-0.9,7.5,2.2
					c0.5,1.7-0.6,2.8-1.7,3.9c3.7-0.1,5.1,2.1,6.2,5.5c1.5,5,0.4,9.7-0.4,14.9c0.5-0.1,1.3-0.1,1.7-0.2 M127.5,210.9
					c1.5,1.1,3.9,2,4.8-0.2c-1.8-0.6-2-9.4,0-13.9C126.4,199.7,123.1,207.6,127.5,210.9z M204,200.3c0,0-8.3,11.4-13.1,12.9
					c-4.4,1.3-9.1,2.2-10.2-1.5c-0.9-2.9-1.3-6-1.7-9c-3,4.6-8.6,14-13.8,15.6c-3.3,1-7.1-2.7-9.8-6.6c-0.4-0.5-0.7-1-1-1.5
					l-2.3,2.1 M151.7,200.9c0.7-13.6,16.9-32.2,25.3-35.3c2.4-0.8,3.8,0.5,5.8,1.7c1.8-7.7,6.3-31.1,14.7-33.7
					c2.3-0.7,7.6,1.2,8.3,3.2c1,3.4-0.6,9.1-1.6,12.5L198,171c-0.4,3.1-6.6,12.9-6.3,17c0.2,1.9,0.2,5.7,2.7,4.9
					c2.4-0.7,3.9-2.1,5.8-4.2 M164.2,198.9c0,1.4,1.6,3.4,2.9,3.3c2.3-0.1,5.2-11.3,7.7-15.9C167.3,189.5,164.3,194.8,164.2,198.9z
					 M248.6,191.4l-13.5,14.8c-8.6,22-13.9,20.8-18.5,21.7c-1.6,0.3-7.2,1.2-7.2,1.2c-1.6-8.5,12.1-24.4,17.7-30.4l1.8-7.8l-0.3-0.2
					c-3.3,5.5-10.3,13.6-16.8,14.9c-3.1,0.6-5.7-1.7-7.6-4.8c-0.1-0.2-0.2-0.4-0.3-0.6l-0.4,0.6 M199.9,188.9l0.2-0.3
					c-0.1-0.6-0.1-1.3-0.1-1.9c0.4-14.6,18.6-30.5,31.1-31.8c1.7-0.2,6.3-0.8,6.8,1.7c0.4,2.1-1.6,2.6-3,3.9l-9.1,12.2
					c-6.6,5.4-13,8.7-11.4,12.8c0.4,0.9,2.7,1.8,3.7,1.4c4-1.9,4.6-4.6,8.1-10.3l8.6-13.1c0.9-1.5,2-3.8,3.8-4.1
					c2.4-0.5,5.2,3.1,5.6,5.1c0.3,1.8-0.8,8.1-1.3,9.8l-4,14.9l0.3,0.2l5.5-5.8 M291.6,178.3c0,0-12.9,18.2-24.2,21.6
					c-6.1,1.9-13.7-2.5-18.3-7.8c-0.2-0.2-0.4-0.4-0.5-0.6l-1,1.1 M292.1,177.6 M244.3,184.2l0.5-0.6c-0.1-0.3-0.1-0.6-0.2-0.9
					c-2.5-14.4,8.8-32.3,22.7-36.4c3.7-1.1,11.4-2.6,13.8,2.8c3.5,8.3,1.9,21-18.4,29.9l0.5,2.6c1.3,2.2,5.3,1.1,7.2,0.4
					c4.9-1.8,9.9-7.1,14.4-11.4c0.3-0.3,0.6-0.6,0.9-0.9 M265.1,161c0.5-1.7,1-3.9,0.9-5.3c-4.3,1-9.4,11.1-9.6,14.7
					C259.7,169.2,263.6,163,265.1,161z M323.5,187.7c-4.8,5.3-8.3,8.5-12.1,9c-5,0.6-11.6-5.3-12.3-9.8c-0.3-2-0.7-5.1-0.8-10
					l-1.2-6.6l-3.4,5.1c-0.8,1-1.5,2-2.2,3.2 M285.1,170.3l0.6-0.6c0.2-0.4,0.3-0.7,0.5-1.1c0.1-0.2,0.2-0.4,0.3-0.7
					c-2.5,0.1-3.4-0.8-3.7-3.3c-1.1-8.5,11.6-21.9,14.4-22.3c1.2-0.2,2.3,0.7,2.4,1.7c0.2,1.2-0.1,2.3-0.4,3.4
					c11-3,17.3-5.2,18.7-3.9c2.1,2,4.8,10.4,5.3,12.5c0.5,3.7-1.6,5.7-4,8.4c-3.1,3.4-8.1,5-7.5,9.8c0.2,1.9,3,2.1,4.5,0.6
					c0,0,2.7-2.5,4.4-3.8 M320.4,171.2c0.2-0.2,2.9-2.1,5.5-4.3l4.9-6.5c6.1-6.7,12.2-14,12.2-14c-0.4-4.5,2.7-8.1,7.8-8.8
					c4.2-0.6,5.9-0.7,6.9,3c1.3,5.1,5.6,11.8,6.1,17.8c0.5,6.4-1.1,16.9-10.8,21.2c4.1-1.8,12.7-9.5,14-11.4c0,0,4.9-5,6.7-6.6
					c4.1-3.6,10-6,13.4-2.7c4,3.8,3.4,9,0.4,16.3c-1.1,2.6-7.3,17.2-13.4,25c-6.1,7.8-16.5,21.5-36.3,29.8
					c-22,9.2-64.1,15.3-94.9,24.1c-44.5,12.7-81.8,24.7-98.9,32.9c-32.7,15.7-57.6,31.2-80.8,49.1c-16.6,12.8-19.9,20.9-25.9,20.9
					c-7.5,0,2.7-17-4.9-40.3C24.6,293.4,12.1,297,11,288.6c-0.8-6.3,39.9-16.1,52.7-20.6c27.7-9.6,109.5-34.6,166-42.1
					c37.7-5,73.7-4,96.8-11.2c22.2-6.9,50.6-31.3,44.2-36.6c-0.7,2.7-13.8,16.6-25.2,17.6c-12,1-16.5-2.3-23-7.7 M337.5,169.9
					c0.4,0.6,1.2,1.5,1.9,2.9c1.1,0.8,4.4-0.1,5.7-1.5c1.5-1.7,3.3-4.7,1.1-9.5l-0.3-0.6L337.5,169.9z M150.4,198.6l-0.4,2.5
					l1.7-0.2l0.4-3.2"/>
			</g>
		</g>
	</g>
</g>
</svg>
